<svg width="16" height="16" viewBox="0 0 16 16" fill="none" xmlns="http://www.w3.org/2000/svg">
    <path
        d="M8.523 11.7219C8.59292 11.7915 8.6484 11.8743 8.68625 11.9655C8.7241 12.0567 8.74359 12.1544 8.74359 12.2531C8.74359 12.3518 8.7241 12.4496 8.68625 12.5407C8.6484 12.6319 8.59292 12.7147 8.523 12.7844L8.15175 13.1556C7.44826 13.8591 6.49413 14.2543 5.49925 14.2543C4.50437 14.2543 3.55024 13.8591 2.84675 13.1556C2.14326 12.4521 1.74805 11.498 1.74805 10.5031C1.74805 9.50824 2.14326 8.55411 2.84675 7.85062L4.35425 6.34375C5.03018 5.66615 5.93961 5.27264 6.89626 5.24382C7.85292 5.215 8.78439 5.55306 9.49987 6.18875C9.57374 6.25441 9.63395 6.33398 9.67707 6.42291C9.72019 6.51184 9.74537 6.60839 9.75117 6.70705C9.75698 6.80572 9.74329 6.90456 9.7109 6.99793C9.6785 7.0913 9.62803 7.17738 9.56237 7.25125C9.49671 7.32512 9.41714 7.38533 9.32821 7.42845C9.23928 7.47157 9.14273 7.49675 9.04407 7.50255C8.94541 7.50835 8.84657 7.49467 8.75319 7.46227C8.65982 7.42988 8.57374 7.37941 8.49987 7.31375C8.07082 6.9327 7.5124 6.72999 6.93882 6.74706C6.36524 6.76414 5.81987 6.99972 5.41425 7.40562L3.908 8.91062C3.48597 9.33265 3.24888 9.90504 3.24888 10.5019C3.24888 11.0987 3.48597 11.6711 3.908 12.0931C4.33002 12.5151 4.90241 12.7522 5.49925 12.7522C6.09608 12.7522 6.66847 12.5151 7.0905 12.0931L7.46175 11.7219C7.5314 11.6521 7.61412 11.5968 7.70517 11.5591C7.79622 11.5213 7.89381 11.5019 7.99237 11.5019C8.09094 11.5019 8.18853 11.5213 8.27958 11.5591C8.37063 11.5968 8.45334 11.6521 8.523 11.7219ZM13.153 2.84687C12.4489 2.14447 11.495 1.75 10.5005 1.75C9.50598 1.75 8.55206 2.14447 7.848 2.84687L7.47675 3.21812C7.33585 3.35902 7.2567 3.55012 7.2567 3.74937C7.2567 3.94863 7.33585 4.13973 7.47675 4.28062C7.61764 4.42152 7.80874 4.50067 8.008 4.50067C8.20726 4.50067 8.39835 4.42152 8.53925 4.28062L8.9105 3.90937C9.33252 3.48735 9.90491 3.25026 10.5017 3.25026C11.0986 3.25026 11.671 3.48735 12.093 3.90937C12.515 4.3314 12.7521 4.90379 12.7521 5.50062C12.7521 6.09746 12.515 6.66985 12.093 7.09187L10.5861 8.59937C10.1801 9.0051 9.63447 9.24034 9.06075 9.25696C8.48703 9.27357 7.92865 9.0703 7.49987 8.68875C7.426 8.62309 7.33993 8.57262 7.24655 8.54022C7.15318 8.50783 7.05434 8.49414 6.95568 8.49995C6.85702 8.50575 6.76046 8.53093 6.67153 8.57405C6.5826 8.61717 6.50303 8.67738 6.43737 8.75125C6.37171 8.82512 6.32124 8.91119 6.28885 9.00457C6.25646 9.09794 6.24277 9.19678 6.24857 9.29544C6.25438 9.3941 6.27956 9.49066 6.32267 9.57959C6.36579 9.66852 6.426 9.74809 6.49987 9.81375C7.21486 10.4493 8.14571 10.7876 9.10191 10.7593C10.0581 10.7311 10.9674 10.3385 11.6436 9.66187L13.1511 8.155C13.8543 7.45111 14.2495 6.49693 14.2499 5.50195C14.2502 4.50697 13.8557 3.55251 13.153 2.84812V2.84687Z"
        fill="currentColor" />
</svg>
