<svg width="16" height="16" viewBox="0 0 16 16" fill="none" xmlns="http://www.w3.org/2000/svg">
    <path
        d="M7.64.696C6.369.83 5.276 1.861 5.054 3.136c-.087.496-.033 1.127.133 1.568A3.018 3.018 0 0 0 8 6.666a3.01 3.01 0 0 0 2.946-2.469 2.996 2.996 0 0 0-.824-2.635A2.955 2.955 0 0 0 8.318.694c-.3-.03-.37-.03-.678.002m.72 1.344c.313.066.555.204.814.465.347.35.486.687.483 1.175-.003.483-.135.798-.484 1.148-.257.259-.448.372-.762.453-.386.098-.82.05-1.181-.133a1.843 1.843 0 0 1-.35-.258c-.384-.362-.539-.714-.539-1.225-.001-.256.009-.323.077-.521.099-.287.23-.484.468-.704a1.632 1.632 0 0 1 1.474-.4M6.68 7.698c-2.192.192-4.155 1.369-5.214 3.129a5.459 5.459 0 0 0-.789 2.591c-.026.528.049.728.32.851.152.069.52.069.672 0 .243-.11.302-.24.332-.736.049-.785.253-1.451.638-2.08.42-.685 1.129-1.341 1.894-1.752.791-.425 1.559-.633 2.546-.69.511-.029.64-.061.759-.188.109-.116.144-.235.146-.49.001-.196-.01-.26-.057-.35a.544.544 0 0 0-.321-.275c-.091-.026-.676-.032-.926-.01m3.66 2.695-1.993 1.994v2.28H10.6l2-2 2-2-1.133-1.134L12.333 8.4l-1.993 1.993m2.207.087.186.187L11.4 12l-1.333 1.333h-.414v-.385l1.327-1.327c.729-.73 1.338-1.328 1.354-1.328.015 0 .111.084.213.187"
        fill-rule="evenodd" fill="currentColor" />
</svg>
