<svg width="16" height="16" viewBox="0 0 16 16" fill="none" xmlns="http://www.w3.org/2000/svg">
    <path
        d="M8.00033 11.3307C7.6467 11.3307 7.30757 11.1903 7.05752 10.9402C6.80747 10.6902 6.66699 10.351 6.66699 9.9974C6.66699 9.2574 7.26033 8.66406 8.00033 8.66406C8.35395 8.66406 8.69309 8.80454 8.94313 9.05459C9.19318 9.30464 9.33366 9.64377 9.33366 9.9974C9.33366 10.351 9.19318 10.6902 8.94313 10.9402C8.69309 11.1903 8.35395 11.3307 8.00033 11.3307ZM12.0003 13.3307V6.66406H4.00033V13.3307H12.0003ZM12.0003 5.33073C12.3539 5.33073 12.6931 5.47121 12.9431 5.72125C13.1932 5.9713 13.3337 6.31044 13.3337 6.66406V13.3307C13.3337 13.6844 13.1932 14.0235 12.9431 14.2735C12.6931 14.5236 12.3539 14.6641 12.0003 14.6641H4.00033C3.6467 14.6641 3.30756 14.5236 3.05752 14.2735C2.80747 14.0235 2.66699 13.6844 2.66699 13.3307V6.66406C2.66699 5.92406 3.26033 5.33073 4.00033 5.33073H4.66699V3.9974C4.66699 3.11334 5.01818 2.26549 5.6433 1.64037C6.26842 1.01525 7.11627 0.664063 8.00033 0.664062C8.43807 0.664062 8.87152 0.750282 9.27594 0.917797C9.68036 1.08531 10.0478 1.33084 10.3573 1.64037C10.6669 1.9499 10.9124 2.31737 11.0799 2.72178C11.2474 3.1262 11.3337 3.55966 11.3337 3.9974V5.33073H12.0003ZM8.00033 1.9974C7.46989 1.9974 6.96118 2.20811 6.58611 2.58318C6.21104 2.95826 6.00033 3.46696 6.00033 3.9974V5.33073H10.0003V3.9974C10.0003 3.46696 9.78961 2.95826 9.41454 2.58318C9.03947 2.20811 8.53076 1.9974 8.00033 1.9974Z"
        fill="currentColor" />
</svg>
