<svg width="16" height="16" viewBox="0 0 16 16" fill="none" xmlns="http://www.w3.org/2000/svg">
    <path
        d="M6.99967 13.3307H8.99967C9.08856 13.3307 9.16634 13.2974 9.23301 13.2307C9.29967 13.1641 9.33301 13.0863 9.33301 12.9974C9.33301 12.9085 9.29967 12.8307 9.23301 12.7641C9.16634 12.6974 9.08856 12.6641 8.99967 12.6641H6.99967C6.91079 12.6641 6.83301 12.6974 6.76634 12.7641C6.69967 12.8307 6.66634 12.9085 6.66634 12.9974C6.66634 13.0863 6.69967 13.1641 6.76634 13.2307C6.83301 13.2974 6.91079 13.3307 6.99967 13.3307ZM4.66634 15.3307C4.29967 15.3307 3.9859 15.2003 3.72501 14.9394C3.46367 14.6781 3.33301 14.3641 3.33301 13.9974V1.9974C3.33301 1.63073 3.46367 1.31673 3.72501 1.0554C3.9859 0.794507 4.29967 0.664062 4.66634 0.664062H11.333C11.6997 0.664062 12.0137 0.794507 12.275 1.0554C12.5359 1.31673 12.6663 1.63073 12.6663 1.9974V13.9974C12.6663 14.3641 12.5359 14.6781 12.275 14.9394C12.0137 15.2003 11.6997 15.3307 11.333 15.3307H4.66634ZM4.66634 10.6641H11.333V3.9974H4.66634V10.6641ZM4.66634 11.9974V13.9974H11.333V11.9974H4.66634ZM4.66634 2.66406H11.333V1.9974H4.66634V2.66406Z"
        fill="currentColor" />
</svg>
