<svg width="24" height="24" viewBox="0 0 24 24" fill="none" xmlns="http://www.w3.org/2000/svg">
    <path
        d="M4.42 7.163c-1.164.14-2.19 1.123-2.377 2.278C2.017 9.6 2 10.589 2 12.012c0 1.957.01 2.359.064 2.62.213 1.034 1.037 1.89 2.077 2.157.263.067.711.071 7.859.071 7.153 0 7.596-.004 7.86-.072a2.907 2.907 0 0 0 1.882-1.558c.252-.532.257-.587.257-3.25 0-2.704-.002-2.719-.287-3.297-.136-.277-.238-.413-.531-.708-.312-.313-.418-.391-.742-.547a4.406 4.406 0 0 0-.579-.233c-.158-.04-1.756-.052-7.68-.058-4.114-.004-7.606.008-7.76.026m15.245 1.562c.261.098.526.324.672.574.172.293.188.567.175 2.886-.011 1.972-.018 2.169-.084 2.315-.178.397-.491.69-.855.8-.291.089-14.855.089-15.146 0a1.456 1.456 0 0 1-.68-.49c-.233-.337-.23-.299-.218-2.893L3.54 9.54l.119-.214c.148-.268.408-.5.675-.603.203-.077.332-.079 7.654-.081l7.449-.002.228.085M6.429 10.819a1.27 1.27 0 0 0-.819 1.273 1.26 1.26 0 0 0 1.712 1.074c.263-.102.523-.344.672-.626.089-.171.105-.25.105-.54 0-.29-.016-.369-.106-.54a1.394 1.394 0 0 0-.589-.589c-.229-.112-.744-.14-.975-.052m5.02.063a1.205 1.205 0 0 0-.601.633c-.364.795.261 1.737 1.152 1.737.488 0 .902-.264 1.125-.716.305-.62.055-1.34-.574-1.654-.208-.104-.289-.122-.551-.122-.262 0-.343.018-.551.122m5.26-.063a1.27 1.27 0 0 0-.819 1.273 1.26 1.26 0 0 0 1.712 1.074c.263-.102.523-.344.672-.626.089-.171.105-.25.105-.54 0-.29-.016-.369-.106-.54a1.394 1.394 0 0 0-.589-.589c-.229-.112-.744-.14-.975-.052"
        fill="currentColor" />
</svg>