<svg width="30" height="30" viewBox="0 0 30 30" fill="none" xmlns="http://www.w3.org/2000/svg">
    <path
        d="M23.75 8H6.25C5.91848 8 5.60054 8.1317 5.36612 8.36612C5.1317 8.60054 5 8.91848 5 9.25V21.75C5 22.0815 5.1317 22.3995 5.36612 22.6339C5.60054 22.8683 5.91848 23 6.25 23H23.75C24.0815 23 24.3995 22.8683 24.6339 22.6339C24.8683 22.3995 25 22.0815 25 21.75V9.25C25 8.91848 24.8683 8.60054 24.6339 8.36612C24.3995 8.1317 24.0815 8 23.75 8ZM22.7875 21.75H7.2875L11.6625 17.225L10.7625 16.3563L6.25 21.025V10.2L14.0188 17.9312C14.253 18.1641 14.5698 18.2947 14.9 18.2947C15.2302 18.2947 15.547 18.1641 15.7812 17.9312L23.75 10.0062V20.9437L19.15 16.3438L18.2687 17.225L22.7875 21.75ZM7.06875 9.25H22.7375L14.9 17.0437L7.06875 9.25Z"
        fill="currentColor" />
</svg>
