<svg width="22" height="22" viewBox="0 0 22 22" fill="none" xmlns="http://www.w3.org/2000/svg">
    <path
        d="M10.987 5.368a.876.876 0 0 0-.249.155c-.21.201-.215.262-.215 2.567v2.1l-2.172.011c-2.398.012-2.328.005-2.53.245-.233.276-.235.83-.004 1.104.209.249.094.237 2.515.249l2.191.01v2.101c0 1.745.009 2.131.054 2.282.097.324.36.493.761.489.359-.005.547-.099.694-.347l.086-.146.011-2.189.01-2.19 2.19-.01 2.189-.011.158-.09c.255-.146.319-.286.319-.698s-.064-.552-.319-.698l-.158-.09-2.189-.011-2.19-.011-.01-2.189-.011-2.189-.086-.152c-.123-.213-.321-.315-.644-.332a1.087 1.087 0 0 0-.401.04"
        fill-rule="evenodd" fill="currentColor" />
</svg>