<svg width="28" height="28" viewBox="0 0 28 28" fill="none" xmlns="http://www.w3.org/2000/svg">
    <path fill-rule="evenodd" clip-rule="evenodd"
        d="M8.70851 8.585V5.97167H6.01221V8.585H8.70851ZM4.66406 9.89167V4.665H10.0567V9.89167H4.66406ZM16.4492 8.545V5.93167H13.753V8.545H16.4492ZM12.4048 9.85167V4.625H17.7974V9.85167H12.4048ZM8.70851 16.425V13.8117H6.01221V16.425H8.70851ZM4.66406 17.7317V12.505H10.0567V17.7317H4.66406ZM18.1056 14.1846V10.2646H23.3323V23.3313H10.2656V18.1046H14.1856V14.1846H18.1056ZM18.1056 15.4913H15.4923V18.1046H18.1056V15.4913ZM11.5723 22.0246H14.1856V19.4113H11.5723V22.0246ZM15.4923 22.0246H18.1056V19.4113H15.4923V22.0246ZM19.4123 22.0246H22.0256V19.4113H19.4123V22.0246ZM19.4123 18.1046H22.0256V15.4913H19.4123V18.1046ZM19.4123 11.5713V14.1846H22.0256V11.5713H19.4123Z"
        fill="currentColor" />
</svg>