<svg width="20" height="20" viewBox="0 0 20 20" fill="none" xmlns="http://www.w3.org/2000/svg">
    <path
        d="M4.37523 2.5C4.25926 2.50001 4.14558 2.53228 4.0469 2.59321C3.94822 2.65413 3.86844 2.74132 3.81648 2.845L1.31648 7.845C1.26242 7.95265 1.24061 8.07364 1.2537 8.19339C1.26678 8.31314 1.3142 8.42656 1.39023 8.52L9.51523 18.52C9.57384 18.5921 9.64778 18.6502 9.73168 18.6902C9.81557 18.7301 9.90732 18.7508 10.0002 18.7508C10.0931 18.7508 10.1849 18.7301 10.2688 18.6902C10.3527 18.6502 10.4266 18.5921 10.4852 18.52L18.6102 8.52C18.6865 8.42669 18.7341 8.31333 18.7474 8.19358C18.7607 8.07382 18.7391 7.95277 18.6852 7.845L16.1852 2.845C16.1332 2.74113 16.0532 2.65382 15.9543 2.59288C15.8554 2.53194 15.7414 2.49977 15.6252 2.5H4.37523ZM2.88648 7.5L4.76148 3.75H7.32398L6.38648 7.5H2.88648ZM3.18773 8.75H6.41648L8.43273 15.205L3.18773 8.75ZM7.72523 8.75H12.2752L10.0002 16.0288L7.72523 8.75ZM13.5852 8.75H16.8127L11.5677 15.205L13.5852 8.75ZM17.114 7.5H13.614L12.6765 3.75H15.239L17.114 7.5ZM12.3252 7.5H7.67523L8.61273 3.75H11.3877L12.3252 7.5Z"
        fill="#85DEAB" />
</svg>