<svg width="26" height="26" viewBox="0 0 26 26" fill="none" xmlns="http://www.w3.org/2000/svg">
    <path
        d="M22.1804 11.9706C22.6505 12.5855 22.6505 13.4156 22.1804 14.0295C20.6997 15.9625 17.1472 19.9425 12.9996 19.9425C8.85196 19.9425 5.29942 15.9625 3.8187 14.0295C3.58998 13.7351 3.46582 13.3729 3.46582 13C3.46582 12.6272 3.58998 12.265 3.8187 11.9706C5.29942 10.0376 8.85196 6.05762 12.9996 6.05762C17.1472 6.05762 20.6997 10.0376 22.1804 11.9706V11.9706Z"
        stroke="currentColor" stroke-width="2" stroke-linecap="round"
        stroke-linejoin="round"/>
    <path
        d="M12.9997 15.9753C14.643 15.9753 15.9751 14.6432 15.9751 13C15.9751 11.3568 14.643 10.0247 12.9997 10.0247C11.3565 10.0247 10.0244 11.3568 10.0244 13C10.0244 14.6432 11.3565 15.9753 12.9997 15.9753Z"
        stroke="currentColor" stroke-width="2" stroke-linecap="round"
        stroke-linejoin="round"/>
</svg>