<svg xmlns="http://www.w3.org/2000/svg" viewBox="0 0 26 26" fill="none">
    <path
        d="M11.986 5.137c-2.006.273-4.01 1.295-6.049 3.084-1.306 1.145-2.917 2.986-3.236 3.696a2.762 2.762 0 0 0-.097 1.928c.203.608 1.07 1.706 2.399 3.038.86.862 1.323 1.266 2.125 1.857 3.442 2.535 6.762 2.869 10.154 1.022 1.645-.895 3.501-2.472 4.952-4.207.889-1.064 1.093-1.392 1.225-1.979a2.674 2.674 0 0 0-.193-1.724c-.328-.691-1.956-2.538-3.203-3.631-1.708-1.498-3.535-2.533-5.148-2.915-.974-.23-2.029-.291-2.929-.169m1.686 1.973c2.343.28 4.996 2.089 7.348 5.011.67.833.67.925 0 1.758-1.799 2.236-3.856 3.89-5.721 4.602-1.362.519-2.583.591-3.902.23-2.103-.576-4.443-2.351-6.497-4.93-.579-.727-.573-.848.08-1.66 1-1.243 2.059-2.29 3.15-3.117 1.955-1.48 3.781-2.104 5.542-1.894m-.954 1.932c-.984.088-1.766.436-2.463 1.095-1.303 1.232-1.601 3.232-.717 4.807A3.94 3.94 0 0 0 13 16.962 3.933 3.933 0 0 0 16.962 13a3.947 3.947 0 0 0-2.644-3.745c-.458-.16-1.157-.253-1.6-.213m1.128 2.178a2.1 2.1 0 0 1 .934.934c.145.296.148.315.148.846 0 .531-.003.55-.148.846-.29.59-.834.996-1.481 1.105-.834.14-1.69-.315-2.079-1.105-.145-.296-.148-.315-.148-.846 0-.525.004-.553.14-.828a2.03 2.03 0 0 1 1.156-1.045c.172-.062.325-.076.698-.067.444.011.499.022.78.16"
        fill-rule="evenodd" fill="currentColor" />
</svg>