<svg width="16" height="16" viewBox="0 0 16 16" fill="none" xmlns="http://www.w3.org/2000/svg">
    <path
        d="M3.49994 2C3.40716 2 3.31622 2.02582 3.23727 2.07456C3.15833 2.12331 3.09451 2.19305 3.05294 2.276L1.05294 6.276C1.00969 6.36212 0.992247 6.45891 1.00271 6.55471C1.01318 6.65051 1.05111 6.74125 1.11194 6.816L7.61194 14.816C7.65882 14.8737 7.71798 14.9202 7.7851 14.9521C7.85222 14.9841 7.92561 15.0006 7.99994 15.0006C8.07427 15.0006 8.14767 14.9841 8.21479 14.9521C8.28191 14.9202 8.34106 14.8737 8.38794 14.816L14.8879 6.816C14.9489 6.74135 14.987 6.65067 14.9977 6.55486C15.0083 6.45906 14.9911 6.36222 14.9479 6.276L12.9479 2.276C12.9063 2.1929 12.8423 2.12305 12.7632 2.0743C12.6841 2.02555 12.5929 1.99982 12.4999 2H3.49994ZM2.30894 6L3.80894 3H5.85894L5.10894 6H2.30894ZM2.54994 7H5.13294L6.74594 12.164L2.54994 7ZM6.17994 7H9.81994L7.99994 12.823L6.17994 7ZM10.8679 7H13.4499L9.25394 12.164L10.8679 7ZM13.6909 6H10.8909L10.1409 3H12.1909L13.6909 6ZM9.85994 6H6.13994L6.88994 3H9.10994L9.85994 6Z"
        fill="currentColor" />
</svg>